<svg height="60" viewBox="0 0 60 60" width="60" xmlns="http://www.w3.org/2000/svg"><title/><g fill="none" fill-rule="evenodd" id="Page-1" stroke-linejoin="round"><g id="Linkedin" stroke="#000" stroke-width="2" transform="translate(1 1)"><path d="M51 33.69V49h-9.854V34.75c0-3.73-1.54-6.273-4.929-6.273-2.594 0-4.038 1.717-4.706 3.37-.254.597-.213 1.423-.213 2.253V49h-9.763s.127-25.24 0-27.535h9.763v4.322c.577-1.89 3.698-4.585 8.673-4.585C46.147 21.202 51 25.16 51 33.69z" id="Stroke-18"/><path id="Stroke-19" d="M7.543 49h8.688V21.466H7.543z"/><path d="M16.782 13.38c0 2.418-1.848 4.335-4.809 4.335h-.06c-2.854 0-4.702-1.908-4.702-4.33 0-2.47 1.903-4.335 4.817-4.335 2.905 0 4.693 1.862 4.754 4.33z" id="Stroke-20"/><path d="M54 58H4a4 4 0 0 1-4-4V4a4 4 0 0 1 4-4h50a4 4 0 0 1 4 4v50a4 4 0 0 1-4 4z" id="Stroke-103"/></g></g></svg>