<svg height="24" id="Layer_1" viewBox="0 0 24 24" width="24" xmlns="http://www.w3.org/2000/svg"><path d="M8.794 21.137c-2.173 0-4.325-.602-6.225-1.738L.058 17.893l2.928.05c.057.004.132.007.248.007.441 0 1.856-.062 3.42-.751a5.04 5.04 0 0 1-2.534-2.897l-.462-1.372.021.004a5.001 5.001 0 0 1-.978-2.708l-.068-1.27.491.214c-.462-1.054-.766-2.651.236-4.478l.577-1.046.729.945a9.991 9.991 0 0 0 6.793 3.819c.004-2.376 1.813-4.83 4.837-4.83 1.189 0 2.358.451 3.239 1.245.98-.271 1.878-.817 1.889-.823l1.852-1.14-.7 2.06c-.054.156-.115.31-.184.458l1.549-.757-.933 2.005a4.882 4.882 0 0 1-1.86 2.086c.111 2.893-1.11 6.107-3.222 8.445-1.621 1.798-4.509 3.947-9.057 3.976l-.075.002zm-5.95-2.448l.111.066a11.371 11.371 0 0 0 5.836 1.632h.073c4.275-.028 6.985-2.043 8.507-3.729 2.038-2.257 3.193-5.371 3.018-8.128l-.016-.238.209-.114a4.128 4.128 0 0 0 1.748-1.864l.04-.089-.209.104a6.482 6.482 0 0 1-.606.231l-1.228.402.822-.996c.316-.384.558-.815.717-1.284l.03-.09-.08.049c-.009.006-1.12.687-2.302.964l-.2.047-.148-.145a4.113 4.113 0 0 0-2.869-1.178c-2.56 0-4.088 2.078-4.088 4.088 0 .049.012.202.029.369l.042.44-.44-.029A10.749 10.749 0 0 1 4.074 5.05l-.032-.042-.025.046c-1.2 2.184-.208 3.988.273 4.663l.655.917-1.073-.343a3.833 3.833 0 0 1-.374-.142l-.053-.023.003.058a4.272 4.272 0 0 0 1.67 3.156l1.466 1.126-1.774-.464.021.061a4.292 4.292 0 0 0 2.847 2.736l.844.252-.767.433c-1.995 1.126-3.964 1.214-4.52 1.214-.133 0-.219-.003-.271-.005l-.12-.004z"/></svg>